<?xml version="1.0" encoding="utf-8"?>
<!-- Generator: Adobe Illustrator 24.0.1, SVG Export Plug-In . SVG Version: 6.00 Build 0)  -->
<svg version="1.1" id="Capa_1" xmlns="http://www.w3.org/2000/svg" xmlns:xlink="http://www.w3.org/1999/xlink" x="0px" y="0px"
	 viewBox="0 0 381.5 381.5" style="enable-background:new 0 0 381.5 381.5;" xml:space="preserve">
<style type="text/css">
	.st0{fill:#FFFFFF;}
</style>
<g>
	<g>
		<g id="Layer_5_13_">
			<g>
				<path class="st0" d="M28.3,182.4c-1.2-2.6-9.5-13.6-17.1-25.1c0,0,0,0,0,0c-1.7-2.6-3.4-5.2-4.9-7.7c0-0.1-0.1-0.1-0.1-0.2
					c-0.2-0.4-17.9-28.6,7.2-17.2c0,0,0,0,0,0c4.7,2.4,10.7,6,18.2,11.1c16.4,11,49.9,27.2,49.9,27.2s5.8,3.1,9.7,0.7
					c19.4-12.1,47.7-33.6,84.9-45.6c0.6-0.2,1.4-0.7,0.3-1.7l-16-11.2c0,0-1.2-1.1,0.4-1.6c7.9-2.6,40.8-13.6,69.2-3.5
					c5.8,2.1,10.6,3.8,14.5,5.2c1.7,0.6,3.4,1.3,6.8,1.7c77.6,2.7,130.1,59.6,130.1,82.2c0,15.1-8.2,25.3-37.9,39.4
					c-0.6-0.1-5.1,3.2-15.1,0.2c-2.7-0.8-21.7-8-22.5-8.3c-0.8-0.3-1.2-0.5-1.6-0.5c-0.4,0.1-0.7,1-0.7,1.1
					c0.1,5.4,10.2,9.8,15.9,14.5c1,0.5,1.2,2.7-0.5,3.5c0,0-20.2,10.9-52.3,14.2c-2.6,0.3-36.3,21.9-70.4,16.1
					c-18-3.1-26.6-4.1-30.5-5.2c-3.4-0.9-1.8-2-1.8-2l17.1-13.6c1.2-1.3,0.2-2.3-0.7-2.5c-37.9-10.8-67.8-27.8-85.7-42.3
					c-2.4-2-8.6,2.7-13.1,5c-14.8,7.5-76.2,32.8-81.3,27.4c-0.4-0.5-0.5-1.1,0-2.1C9,223.5,40.3,208,28.3,182.4z M318.7,180.6
					c5.5,0,9.9-4.5,9.9-10.1s-4.4-10.1-9.9-10.1c-5.5,0-9.9,4.5-9.9,10.1S313.2,180.6,318.7,180.6z M274.4,238
					c0.6,0.5,1.2,1.4,0.8,0.2c0,0-15.4-23.2-17.4-53.2c-1.5-22.5,13.5-50,13.5-50s0-0.8-0.6-0.2C265.4,141.2,212.9,182.7,274.4,238z
					"/>
			</g>
		</g>
	</g>
</g>
</svg>
