<?xml version="1.0" encoding="utf-8"?>
<!-- Generator: Adobe Illustrator 24.0.1, SVG Export Plug-In . SVG Version: 6.00 Build 0)  -->
<svg version="1.1" id="Calque_1" xmlns="http://www.w3.org/2000/svg" xmlns:xlink="http://www.w3.org/1999/xlink" x="0px" y="0px"
	 viewBox="0 0 456 456" style="enable-background:new 0 0 456 456;" xml:space="preserve">
<style type="text/css">
	.st0{fill:#FFFFFF;}
</style>
<path class="st0" d="M157.3,150.8c5.6,5.3,11.4,10.4,17.5,15c18.9,14.5,40.1,25.8,62.5,33.6L256,162v-5c0-8.8-3.4-17.1-9.7-23.3
	c-6.1-6.1-14.6-9.7-23.3-9.7h-5.3L157.3,150.8z"/>
<path class="st0" d="M211.4,109.3l3.6-3.6c5.2-5.2,7.5-12.7,6-20c-1.5-7.4-6.7-13.4-13.6-16.1c-32.2,3.2-63.5,11.3-93.5,24
	c8.6,16.2,19.2,31.4,31.5,45L211.4,109.3z"/>
<path class="st0" d="M329,161.4c-16.2-8.1-36.4-6.8-51.5,3.2l-7.3,4.8l-17.4,34.8c18.7,5,38,7.8,57.5,7.8c14.7,0,29.3-0.6,44-1.5
	L330,162L329,161.4z"/>
<path class="st0" d="M344,146.3v7.8l27.5,55c24.1-2.2,48-5.8,71.7-10.6l-8-14.7c-9.7-17.8-22-34.2-36.1-48.7l-11.8-9.5
	c-10.6-8.5-25.8-7.6-35.4,1.9C346.8,132.5,344,139.2,344,146.3z"/>
<path class="st0" d="M232.5,108.9c9.5,1.8,18.2,6.5,25.2,13.4c7.5,7.5,12.2,16.9,13.8,27.2c16.8-10.1,38-12.2,56.6-5.8
	c0.6-10.4,5-20.1,12.4-27.5c6.1-6.1,13.7-9.9,21.7-11.5C325.8,80.7,283.8,68,240.1,68c-3.2,0-6.4,0.2-9.6,0.3
	c3,4.3,5.1,9.1,6.2,14.4C238.5,91.8,236.9,101,232.5,108.9z"/>
<path class="st0" d="M384,260l-5.6-4.2c-11.5,1.1-22.9,1.9-34.4,2.6v17c0,12.9,6.3,25.1,16.8,32.6l32.7,23.4
	c2.6,1.8,6.5-0.2,6.5-3.4v-36C400,279.5,394,267.5,384,260z"/>
<path class="st0" d="M455.2,220.6l-4-7.4C405,223,357.6,228,310.3,228c-52.3,0-103.9-17.5-145.3-49.4c-27.2-21-49.9-48.1-65.8-78.5
	l-0.4,0.2c-6.6,3-10.8,9.6-10.8,16.8c0,3.2,0.8,6.3,2.4,9.1C131.3,198.8,208.5,244,291.9,244c50.1,0,100.5-4.2,149.8-12.4l8.8-1.5
	c3.1-0.5,5.4-3.2,5.4-6.4C456,222.6,455.7,221.5,455.2,220.6z"/>
<path class="st0" d="M84.4,147.2l-21.6-10.8c-5.7-2.8-12.1-4.4-18.4-4.4c-11,0-21.4,4.3-29.1,12.1L4.4,154.9
	c-2.9,2.9-4.4,6.7-4.4,10.7c0,2.7,0.7,5.4,2.2,7.8l3.3,5.4c9.3,15.5,26.3,25.2,44.4,25.2c8,0,16-1.9,23.2-5.5l14.5-7.2
	c4.3-2.1,9.1-3.3,13.9-3.3h16.2C105.3,175.7,94.1,162,84.4,147.2L84.4,147.2z M56,164H40v-16h16V164z"/>
<path class="st0" d="M184,244.8v-9.7c-7.7-3.7-15.1-7.9-22.3-12.4l-10.4,13c-9.9,12.3-15.3,27.8-15.3,43.6c0,12.1,3.2,24.1,9.2,34.7
	c13.6,23.9,32.7,45,55.1,61l17.2,12.3c2.6,1.8,6.5-0.2,6.5-3.4v-28.6c0-18.3-6.4-36.1-18.1-50.1C191.8,288.2,184,266.8,184,244.8z"
	/>
</svg>
