<?xml version="1.0" encoding="utf-8"?>
<!-- Generator: Adobe Illustrator 24.0.1, SVG Export Plug-In . SVG Version: 6.00 Build 0)  -->
<svg version="1.1" id="Calque_1" xmlns="http://www.w3.org/2000/svg" xmlns:xlink="http://www.w3.org/1999/xlink" x="0px" y="0px"
	 viewBox="0 0 456 456" style="enable-background:new 0 0 456 456;" xml:space="preserve">
<style type="text/css">
	.st0{fill:#FFFFFF;}
</style>
<path class="st0" d="M298.6,150.8c-5.6,5.3-11.4,10.4-17.5,15c-18.9,14.5-40.1,25.8-62.5,33.6L199.9,162v-5c0-8.8,3.4-17.1,9.7-23.3
	c6.1-6.1,14.6-9.7,23.3-9.7h5.3L298.6,150.8z"/>
<path class="st0" d="M244.5,109.3l-3.6-3.6c-5.2-5.2-7.5-12.7-6-20c1.5-7.4,6.7-13.4,13.6-16.1c32.2,3.2,63.5,11.3,93.5,24
	c-8.6,16.2-19.2,31.4-31.5,45L244.5,109.3z"/>
<path class="st0" d="M126.9,161.4c16.2-8.1,36.4-6.8,51.5,3.2l7.3,4.8l17.4,34.8c-18.7,5-38,7.8-57.5,7.8c-14.7,0-29.3-0.6-44-1.5
	l24.3-48.5L126.9,161.4z"/>
<path class="st0" d="M111.9,146.3v7.8l-27.5,55c-24.1-2.2-48-5.8-71.7-10.6l8-14.7c9.7-17.8,22-34.2,36.1-48.7l11.8-9.5
	c10.6-8.5,25.8-7.6,35.4,1.9C109.1,132.5,111.9,139.2,111.9,146.3z"/>
<path class="st0" d="M223.4,108.9c-9.5,1.8-18.2,6.5-25.2,13.4c-7.5,7.5-12.2,16.9-13.8,27.2c-16.8-10.1-38-12.2-56.6-5.8
	c-0.6-10.4-5-20.1-12.4-27.5c-6.1-6.1-13.7-9.9-21.7-11.5c36.4-24,78.4-36.7,122.1-36.7c3.2,0,6.4,0.2,9.6,0.3
	c-3,4.3-5.1,9.1-6.2,14.4C217.4,91.8,219,101,223.4,108.9z"/>
<path class="st0" d="M71.9,260l5.6-4.2c11.5,1.1,22.9,1.9,34.4,2.6v17c0,12.9-6.3,25.1-16.8,32.6l-32.7,23.4
	c-2.6,1.8-6.5-0.2-6.5-3.4v-36C55.9,279.5,61.9,267.5,71.9,260z"/>
<path class="st0" d="M0.7,220.6l4-7.4C50.9,223,98.3,228,145.6,228c52.3,0,103.9-17.5,145.3-49.4c27.2-21,49.9-48.1,65.8-78.5
	l0.4,0.2c6.6,3,10.8,9.6,10.8,16.8c0,3.2-0.8,6.3-2.4,9.1C324.6,198.8,247.4,244,164,244c-50.1,0-100.5-4.2-149.8-12.4l-8.8-1.5
	c-3.1-0.5-5.4-3.2-5.4-6.4C-0.1,222.6,0.2,221.5,0.7,220.6z"/>
<path class="st0" d="M371.5,147.2l21.6-10.8c5.7-2.8,12.1-4.4,18.4-4.4c11,0,21.4,4.3,29.1,12.1l10.9,10.8c2.9,2.9,4.4,6.7,4.4,10.7
	c0,2.7-0.7,5.4-2.2,7.8l-3.3,5.4c-9.3,15.5-26.3,25.2-44.4,25.2c-8,0-16-1.9-23.2-5.5l-14.5-7.2c-4.3-2.1-9.1-3.3-13.9-3.3h-16.2
	C350.6,175.7,361.8,162,371.5,147.2L371.5,147.2z M399.9,164h16v-16h-16V164z"/>
<path class="st0" d="M271.9,244.8v-9.7c7.7-3.7,15.1-7.9,22.3-12.4l10.4,13c9.9,12.3,15.3,27.8,15.3,43.6c0,12.1-3.2,24.1-9.2,34.7
	c-13.6,23.9-32.7,45-55.1,61l-17.2,12.3c-2.6,1.8-6.5-0.2-6.5-3.4v-28.6c0-18.3,6.4-36.1,18.1-50.1
	C264.1,288.2,271.9,266.8,271.9,244.8z"/>
</svg>
